# xmcd CD database file
#
# Track frame offsets:
#	150
#	30218
#	53755
#	79208
#	100993
#	126195
#	153303
#	173230
#	202300
#	226030
#	255615
#	284590
#
# Disc length: 4477 seconds
#
# Revision: 7
# Processed by: cddbd v1.5.2PL0 Copyright (c) Steve Scherf et al.
# Submitted via: CDex 1.51
#
DISCID=9e117b0c
DTITLE=Walter Trout Band - Tellin' Stories
DYEAR=1994
DGENRE=Blues/Rock
TTITLE0=I Can Tell
TTITLE1=Tremble
TTITLE2=Wanna See the Morning
TTITLE3=Need to Belong
TTITLE4=Runnin' Blues
TTITLE5=On the Rise
TTITLE6=Time for Movin' On
TTITLE7=Head Hung Down
TTITLE8=Please Don't Go
TTITLE9=Tellin' Stories
TTITLE10=Somebody's Cryin'
TTITLE11=Take Care of Yo' Business
EXTD=YEAR: 1994
EXTT0=
EXTT1=
EXTT2=
EXTT3=
EXTT4=
EXTT5=
EXTT6=
EXTT7=
EXTT8=
EXTT9=
EXTT10=
EXTT11=
PLAYORDER=
